<svg width="137" height="42" viewBox="0 0 137 42" fill="none" xmlns="http://www.w3.org/2000/svg"><g opacity="0.5"><path d="M41.9454 39.7446C45.4341 35.3837 47.3987 29.7454 47.0287 23.649C46.3151 11.9935 36.915 2.50532 25.2683 1.70362C11.5602 0.760963 0.142578 11.6059 0.142578 25.1203C0.142578 30.644 2.05432 35.7273 5.26111 39.7358C5.71922 40.3173 6.5033 40.5023 7.18166 40.2027C17.5333 35.6392 29.6997 35.648 40.0337 40.2116C40.712 40.5111 41.4961 40.3261 41.9542 39.7534L41.9454 39.7446Z" fill="black"></path><mask id="path-2-outside-1_250_2644" maskUnits="userSpaceOnUse" x="61.6731" y="0" width="75" height="42" fill="black"><rect fill="white" x="61.6731" width="75" height="42"></rect><path fill-rule="evenodd" clip-rule="evenodd" d="M62.6731 39.3619C62.6731 39.8037 63.0313 40.1608 63.4731 40.1608H76.0997C87.2325 40.1608 96.0717 33.2238 96.0717 20.5804C96.0717 7.93706 87.2325 1 76.0997 1H63.4731C63.0313 1 62.6731 1.35709 62.6731 1.79892V5.36364V35.6853L62.6731 39.3619ZM69.3472 36.2923C68.9054 36.2923 68.5472 35.9341 68.5472 35.4923V5.66853C68.5472 5.22671 68.9054 4.86853 69.3472 4.86853H74.9808C82.8689 4.86853 89.806 9.72727 89.806 20.5804C89.806 31.3776 82.8689 36.2923 74.9808 36.2923H69.3472ZM101.408 1.76699C98.7656 1.76699 96.8496 3.72248 96.8496 6.19942C96.8496 8.74155 98.7656 10.5667 101.408 10.5667C103.985 10.5667 105.901 8.74155 105.901 6.19942C105.901 3.72248 103.985 1.76699 101.408 1.76699ZM126.278 38.5265C127.134 40.1291 128.681 41 130.85 41C133.51 41 135.626 39.4532 136.332 36.8655C136.436 36.4844 135.904 36.2229 135.554 36.4068C135.044 36.6753 134.457 36.8042 133.815 36.8042C132.137 36.8042 131.13 35.7413 131.13 33.8951V22.9301C131.13 15.8812 127.214 12.077 120.221 12.077C114.543 12.077 110.535 14.7395 109.291 19.5783C109.185 19.9905 109.733 20.2107 110.007 19.8851C111.969 17.5552 114.538 16.4406 117.983 16.4406C122.85 16.4406 125.535 18.9581 125.535 23.4895V23.5407C125.535 23.9311 125.254 24.2645 124.869 24.3295L117.927 25.5035C111.773 26.5665 108.249 29.4196 108.249 33.7832C108.249 38.035 111.941 41 117.088 41C120.013 41 122.597 39.8419 124.362 38.1636C124.885 37.666 125.938 37.8894 126.278 38.5265ZM119.382 37.028C116.249 37.028 114.011 35.4616 114.011 32.7203C114.011 30.3147 115.633 28.4126 119.326 27.7972L124.587 26.8019C125.079 26.7087 125.535 27.0865 125.535 27.588V33.6589C125.535 33.8131 125.492 33.9648 125.404 34.0913C124.156 35.8814 122.081 37.028 119.382 37.028ZM98.4317 38.8098C98.1351 39.397 98.5264 40.1608 99.1843 40.1608H105.242C105.875 40.1608 106.265 39.4522 105.989 38.8814C104.976 36.7809 104.976 35.0485 104.976 33.6923V13.5863C104.976 13.0544 104.467 12.6707 103.956 12.8174L99.4749 14.1033C99.0381 14.2286 98.7887 14.694 98.8977 15.1352C99.105 15.9747 99.3819 17.3807 99.3819 18.9021V33.8042C99.3819 35.2084 99.3819 36.9289 98.4317 38.8098Z"></path></mask><path fill-rule="evenodd" clip-rule="evenodd" d="M62.6731 39.3619C62.6731 39.8037 63.0313 40.1608 63.4731 40.1608H76.0997C87.2325 40.1608 96.0717 33.2238 96.0717 20.5804C96.0717 7.93706 87.2325 1 76.0997 1H63.4731C63.0313 1 62.6731 1.35709 62.6731 1.79892V5.36364V35.6853L62.6731 39.3619ZM69.3472 36.2923C68.9054 36.2923 68.5472 35.9341 68.5472 35.4923V5.66853C68.5472 5.22671 68.9054 4.86853 69.3472 4.86853H74.9808C82.8689 4.86853 89.806 9.72727 89.806 20.5804C89.806 31.3776 82.8689 36.2923 74.9808 36.2923H69.3472ZM101.408 1.76699C98.7656 1.76699 96.8496 3.72248 96.8496 6.19942C96.8496 8.74155 98.7656 10.5667 101.408 10.5667C103.985 10.5667 105.901 8.74155 105.901 6.19942C105.901 3.72248 103.985 1.76699 101.408 1.76699ZM126.278 38.5265C127.134 40.1291 128.681 41 130.85 41C133.51 41 135.626 39.4532 136.332 36.8655C136.436 36.4844 135.904 36.2229 135.554 36.4068C135.044 36.6753 134.457 36.8042 133.815 36.8042C132.137 36.8042 131.13 35.7413 131.13 33.8951V22.9301C131.13 15.8812 127.214 12.077 120.221 12.077C114.543 12.077 110.535 14.7395 109.291 19.5783C109.185 19.9905 109.733 20.2107 110.007 19.8851C111.969 17.5552 114.538 16.4406 117.983 16.4406C122.85 16.4406 125.535 18.9581 125.535 23.4895V23.5407C125.535 23.9311 125.254 24.2645 124.869 24.3295L117.927 25.5035C111.773 26.5665 108.249 29.4196 108.249 33.7832C108.249 38.035 111.941 41 117.088 41C120.013 41 122.597 39.8419 124.362 38.1636C124.885 37.666 125.938 37.8894 126.278 38.5265ZM119.382 37.028C116.249 37.028 114.011 35.4616 114.011 32.7203C114.011 30.3147 115.633 28.4126 119.326 27.7972L124.587 26.8019C125.079 26.7087 125.535 27.0865 125.535 27.588V33.6589C125.535 33.8131 125.492 33.9648 125.404 34.0913C124.156 35.8814 122.081 37.028 119.382 37.028ZM98.4317 38.8098C98.1351 39.397 98.5264 40.1608 99.1843 40.1608H105.242C105.875 40.1608 106.265 39.4522 105.989 38.8814C104.976 36.7809 104.976 35.0485 104.976 33.6923V13.5863C104.976 13.0544 104.467 12.6707 103.956 12.8174L99.4749 14.1033C99.0381 14.2286 98.7887 14.694 98.8977 15.1352C99.105 15.9747 99.3819 17.3807 99.3819 18.9021V33.8042C99.3819 35.2084 99.3819 36.9289 98.4317 38.8098Z" fill="black"></path><path d="M62.6731 39.3619H62.8731H62.6731ZM62.6731 35.6853H62.8731H62.6731ZM126.278 38.5265L126.102 38.6207L126.278 38.5265ZM136.332 36.8655L136.139 36.8129L136.332 36.8655ZM135.554 36.4068L135.461 36.2298V36.2298L135.554 36.4068ZM109.291 19.5783L109.485 19.6281L109.291 19.5783ZM110.007 19.8851L110.16 20.0139L110.007 19.8851ZM124.869 24.3295L124.902 24.5267V24.5267L124.869 24.3295ZM117.927 25.5035L117.894 25.3063L117.893 25.3064L117.927 25.5035ZM124.362 38.1636L124.5 38.3086L124.362 38.1636ZM119.326 27.7972L119.358 27.9946L119.363 27.9937L119.326 27.7972ZM124.587 26.8019L124.624 26.9984L124.587 26.8019ZM125.404 34.0913L125.568 34.2056L125.568 34.2056L125.404 34.0913ZM98.4317 38.8098L98.6102 38.9L98.4317 38.8098ZM105.989 38.8814L105.809 38.9683V38.9683L105.989 38.8814ZM103.956 12.8174L103.9 12.6251L103.956 12.8174ZM99.4749 14.1033L99.4198 13.911L99.4749 14.1033ZM98.8977 15.1352L99.0919 15.0872V15.0872L98.8977 15.1352ZM63.4731 39.9608C63.1414 39.9608 62.8731 39.6929 62.8731 39.3619H62.4731C62.4731 39.9145 62.9212 40.3608 63.4731 40.3608V39.9608ZM76.0997 39.9608H63.4731V40.3608H76.0997V39.9608ZM95.8717 20.5804C95.8717 26.8527 93.6808 31.6921 90.1251 34.9647C86.567 38.2396 81.6253 39.9608 76.0997 39.9608V40.3608C81.7069 40.3608 86.7512 38.6136 90.396 35.2591C94.0431 31.9023 96.2717 26.9515 96.2717 20.5804H95.8717ZM76.0997 1.2C81.6253 1.2 86.567 2.92128 90.1251 6.19611C93.6808 9.46872 95.8717 14.3081 95.8717 20.5804H96.2717C96.2717 14.2093 94.0431 9.25855 90.396 5.90179C86.7512 2.54725 81.7069 0.8 76.0997 0.8V1.2ZM63.4731 1.2H76.0997V0.8H63.4731V1.2ZM62.8731 1.79892C62.8731 1.4679 63.1414 1.2 63.4731 1.2V0.8C62.9212 0.8 62.4731 1.24628 62.4731 1.79892H62.8731ZM62.8731 5.36364V1.79892H62.4731V5.36364H62.8731ZM62.8731 35.6853V5.36364H62.4731V35.6853H62.8731ZM62.8731 39.3619L62.8731 35.6853H62.4731L62.4731 39.3619H62.8731ZM68.3472 35.4923C68.3472 36.0446 68.7949 36.4923 69.3472 36.4923V36.0923C69.0159 36.0923 68.7472 35.8237 68.7472 35.4923H68.3472ZM68.3472 5.66853V35.4923H68.7472V5.66853H68.3472ZM69.3472 4.66853C68.7949 4.66853 68.3472 5.11625 68.3472 5.66853H68.7472C68.7472 5.33716 69.0159 5.06853 69.3472 5.06853V4.66853ZM74.9808 4.66853H69.3472V5.06853H74.9808V4.66853ZM90.006 20.5804C90.006 15.1093 88.2561 11.1249 85.4888 8.5092C82.724 5.89577 78.9647 4.66853 74.9808 4.66853V5.06853C78.885 5.06853 82.5383 6.27067 85.214 8.79989C87.8873 11.3268 89.606 15.1984 89.606 20.5804H90.006ZM74.9808 36.4923C78.9653 36.4923 82.7245 35.2508 85.489 32.6305C88.2559 30.008 90.006 26.0238 90.006 20.5804H89.606C89.606 25.9342 87.8875 29.806 85.2138 32.3402C82.5378 34.8765 78.8844 36.0923 74.9808 36.0923V36.4923ZM69.3472 36.4923H74.9808V36.0923H69.3472V36.4923ZM97.0496 6.19942C97.0496 3.83546 98.8735 1.96699 101.408 1.96699V1.56699C98.6576 1.56699 96.6496 3.60949 96.6496 6.19942H97.0496ZM101.408 10.3667C98.8675 10.3667 97.0496 8.62279 97.0496 6.19942H96.6496C96.6496 8.86031 98.6636 10.7667 101.408 10.7667V10.3667ZM105.701 6.19942C105.701 8.62468 103.881 10.3667 101.408 10.3667V10.7667C104.089 10.7667 106.101 8.85842 106.101 6.19942H105.701ZM101.408 1.96699C103.875 1.96699 105.701 3.83354 105.701 6.19942H106.101C106.101 3.61141 104.095 1.56699 101.408 1.56699V1.96699ZM130.85 40.8C128.742 40.8 127.27 39.9592 126.455 38.4323L126.102 38.6207C126.998 40.2991 128.62 41.2 130.85 41.2V40.8ZM136.139 36.8129C135.458 39.3103 133.423 40.8 130.85 40.8V41.2C133.597 41.2 135.795 39.5961 136.525 36.9181L136.139 36.8129ZM135.647 36.5838C135.753 36.5283 135.902 36.5361 136.017 36.5995C136.129 36.6615 136.159 36.7407 136.139 36.8129L136.525 36.9181C136.609 36.6092 136.424 36.3671 136.21 36.249C135.997 36.1324 135.705 36.1014 135.461 36.2298L135.647 36.5838ZM133.815 37.0042C134.484 37.0042 135.104 36.8698 135.647 36.5838L135.461 36.2298C134.984 36.4808 134.43 36.6042 133.815 36.6042V37.0042ZM130.93 33.8951C130.93 34.8533 131.191 35.6347 131.697 36.1782C132.204 36.7235 132.933 37.0042 133.815 37.0042V36.6042C133.019 36.6042 132.406 36.3535 131.99 35.9058C131.572 35.4562 131.33 34.7831 131.33 33.8951H130.93ZM130.93 22.9301V33.8951H131.33V22.9301H130.93ZM120.221 12.277C123.682 12.277 126.352 13.218 128.157 15.0024C129.961 16.7864 130.93 19.4419 130.93 22.9301H131.33C131.33 19.3694 130.34 16.5983 128.438 14.7179C126.537 12.838 123.752 11.877 120.221 11.877V12.277ZM109.485 19.6281C110.095 17.2529 111.381 15.4199 113.206 14.1784C115.033 12.9354 117.412 12.277 120.221 12.277V11.877C117.351 11.877 114.888 12.5498 112.981 13.8477C111.071 15.1472 109.731 17.0648 109.097 19.5285L109.485 19.6281ZM109.854 19.7563C109.779 19.8451 109.67 19.8598 109.583 19.8238C109.502 19.7901 109.46 19.7233 109.485 19.6281L109.097 19.5285C109.016 19.8455 109.194 20.0949 109.429 20.1929C109.659 20.2887 109.96 20.2507 110.16 20.0139L109.854 19.7563ZM117.983 16.2406C114.487 16.2406 111.859 17.3753 109.854 19.7563L110.16 20.0139C112.079 17.7351 114.589 16.6406 117.983 16.6406V16.2406ZM125.735 23.4895C125.735 21.184 125.051 19.3627 123.721 18.1196C122.393 16.8785 120.449 16.2406 117.983 16.2406V16.6406C120.384 16.6406 122.217 17.2614 123.448 18.4119C124.677 19.5604 125.335 21.2637 125.335 23.4895H125.735ZM125.735 23.5407V23.4895H125.335V23.5407H125.735ZM124.902 24.5267C125.383 24.4454 125.735 24.0287 125.735 23.5407H125.335C125.335 23.8335 125.124 24.0835 124.835 24.1323L124.902 24.5267ZM117.96 25.7007L124.902 24.5267L124.835 24.1323L117.894 25.3063L117.96 25.7007ZM108.449 33.7832C108.449 31.6628 109.302 29.9138 110.909 28.5585C112.523 27.1979 114.904 26.2286 117.961 25.7006L117.893 25.3064C114.796 25.8414 112.338 26.8301 110.651 28.2527C108.958 29.6807 108.049 31.54 108.049 33.7832H108.449ZM117.088 40.8C112.011 40.8 108.449 37.8877 108.449 33.7832H108.049C108.049 38.1823 111.871 41.2 117.088 41.2V40.8ZM124.224 38.0187C122.495 39.6626 119.96 40.8 117.088 40.8V41.2C120.065 41.2 122.698 40.0213 124.5 38.3086L124.224 38.0187ZM126.455 38.4323C126.25 38.0481 125.842 37.8051 125.428 37.7233C125.013 37.6415 124.546 37.7123 124.224 38.0187L124.5 38.3086C124.701 38.1173 125.022 38.0509 125.35 38.1157C125.678 38.1805 125.967 38.3677 126.102 38.6207L126.455 38.4323ZM113.811 32.7203C113.811 34.1516 114.398 35.2875 115.399 36.0604C116.395 36.829 117.784 37.228 119.382 37.228V36.828C117.846 36.828 116.55 36.4438 115.644 35.7438C114.743 35.0482 114.211 34.0302 114.211 32.7203H113.811ZM119.293 27.6C117.42 27.912 116.049 28.5542 115.143 29.4449C114.234 30.3391 113.811 31.469 113.811 32.7203H114.211C114.211 31.566 114.598 30.5421 115.424 29.73C116.253 28.9144 117.539 28.2978 119.358 27.9945L119.293 27.6ZM124.549 26.6054L119.288 27.6007L119.363 27.9937L124.624 26.9984L124.549 26.6054ZM125.735 27.588C125.735 26.9611 125.165 26.4889 124.549 26.6054L124.624 26.9984C124.993 26.9285 125.335 27.2119 125.335 27.588H125.735ZM125.735 33.6589V27.588H125.335V33.6589H125.735ZM125.568 34.2056C125.681 34.0427 125.735 33.8504 125.735 33.6589H125.335C125.335 33.7758 125.302 33.8868 125.24 33.9769L125.568 34.2056ZM119.382 37.228C122.143 37.228 124.28 36.0528 125.568 34.2056L125.24 33.9769C124.032 35.71 122.02 36.828 119.382 36.828V37.228ZM99.1843 39.9608C98.9402 39.9608 98.7398 39.8208 98.626 39.6104C98.5112 39.3982 98.4941 39.1298 98.6102 38.9L98.2532 38.7196C98.0727 39.077 98.1029 39.4841 98.2741 39.8007C98.4463 40.119 98.7705 40.3608 99.1843 40.3608V39.9608ZM105.242 39.9608H99.1843V40.3608H105.242V39.9608ZM105.809 38.9683C106.029 39.4251 105.707 39.9608 105.242 39.9608V40.3608C106.043 40.3608 106.5 39.4793 106.169 38.7946L105.809 38.9683ZM104.776 33.6923C104.776 35.0531 104.775 36.8246 105.809 38.9683L106.169 38.7946C105.177 36.7373 105.176 35.0439 105.176 33.6923H104.776ZM104.776 13.5863V33.6923H105.176V13.5863H104.776ZM104.011 13.0096C104.394 12.8996 104.776 13.1874 104.776 13.5863H105.176C105.176 12.9215 104.54 12.4417 103.9 12.6251L104.011 13.0096ZM99.5301 14.2955L104.011 13.0096L103.9 12.6251L99.4198 13.911L99.5301 14.2955ZM99.0919 15.0872C99.0069 14.7431 99.2038 14.3892 99.5301 14.2955L99.4198 13.911C98.8725 14.0681 98.5706 14.6448 98.7035 15.1831L99.0919 15.0872ZM99.5819 18.9021C99.5819 17.3585 99.3013 15.9353 99.0919 15.0872L98.7035 15.1831C98.9088 16.0142 99.1819 17.4029 99.1819 18.9021H99.5819ZM99.5819 33.8042V18.9021H99.1819V33.8042H99.5819ZM98.6102 38.9C99.5838 36.9727 99.5819 35.2091 99.5819 33.8042H99.1819C99.1819 35.2077 99.18 36.885 98.2532 38.7196L98.6102 38.9Z" fill="black" mask="url(#path-2-outside-1_250_2644)"></path></g></svg>