<svg xmlns="http://www.w3.org/2000/svg" fill="#131313" viewBox="0 0 106 32" width="106" height="32">
  <path fill-rule="evenodd" clip-rule="evenodd" d="m27.162 4.692-.109-.102C23.564 1.167 18.766-.465 13.892.115a11.79 11.79 0 0 0-.989.158 16.616 16.616 0 0 0-1.276.284 17.733 17.733 0 0 0-7.328 3.9 17.68 17.68 0 0 0-4.044 5.19L0 10.15l6.015 5.998C2.95 20.956 2.351 25.2 4.468 27.31l.099.096A16.036 16.036 0 0 0 17.599 31.9c.136-.016.273-.034.413-.052l.11-.014.135-.02c.159-.026.32-.056.473-.086l.12-.022a7.677 7.677 0 0 0 .41-.086l.151-.033.13-.03.125-.03a19.02 19.02 0 0 0 1.858-.547 17.662 17.662 0 0 0 5.807-3.436 17.938 17.938 0 0 0 4.04-5.193l.259-.501-6.015-5.998c3.058-4.807 3.66-9.048 1.55-11.158l-.003.003v-.006Zm-2.15.155c.325.102.62.24.877.428.022.02.047.037.072.054l.037.026c.032.02.061.045.09.068l.046.037c.046.04.09.08.129.119 1.769 1.764.876 5.71-1.922 9.931.04-.135.073-.267.103-.399.582-2.46.159-4.8-1.386-6.344-1.63-1.625-4.15-2.001-6.762-1.276 3.43-2.252 6.673-3.27 8.72-2.641l-.003-.003Zm-1.395 9.486c-.36 2.147-1.55 4.316-3.356 6.113-1.799 1.797-3.978 2.984-6.131 3.347-2.017.34-3.757-.102-4.897-1.237-1.138-1.134-1.581-2.862-1.24-4.883.36-2.143 1.544-4.313 3.34-6.106 0 0 .006 0 .01-.01l.01-.01c1.798-1.787 3.974-2.971 6.124-3.33 2.017-.34 3.75.102 4.897 1.236 1.138 1.134 1.58 2.865 1.24 4.883l.003-.003ZM1.915 9.862a16.2 16.2 0 0 1 3.422-4.244 16.1 16.1 0 0 1 6.687-3.56c.27-.073.549-.136.846-.199l.074-.014c.073-.015.146-.03.23-.045.15-.03.288-.053.437-.076a14.463 14.463 0 0 1 9.662 1.896c-2.162.214-4.818 1.296-7.533 3.096a62.69 62.69 0 0 0-.592.4l-.003.003c-.188.131-.377.267-.559.405l-.337.244c-1.2.904-2.4 1.946-3.575 3.11a1.81 1.81 0 0 0-.075.08l-.011.014-.02.02a6.96 6.96 0 0 0-.154.152l-.08.08s-.02.02-.023.03l-.047.042-.041.045-.041.044c-.043.05-.093.099-.136.142l-.014.015c-.014.014-.027.028-.042.038l-.015.018a.168.168 0 0 1-.015.018s-.003.01-.01.013l-.03.03-.033.033c-.027.027-.052.055-.075.081l-.03.034v-.001a2.51 2.51 0 0 0-.023.028s-.01.01-.01.016a7.04 7.04 0 0 0-.173.186 9.09 9.09 0 0 1-.133.147l-.009.01a.379.379 0 0 0-.016.02c-.02.02-.037.04-.053.06a2.652 2.652 0 0 1-.017.019s-.01.013-.013.02c-.086.093-.165.182-.248.275l-.07.078a30.14 30.14 0 0 0-1.888 2.387l-5.221-5.19h.007ZM6.617 27.15a3.104 3.104 0 0 1-1.171-.653 2.249 2.249 0 0 1-.086-.08c-1.769-1.764-.873-5.71 1.925-9.93-.04.134-.076.266-.106.398-.582 2.46-.159 4.807 1.382 6.344 1.63 1.626 4.147 2.002 6.753 1.28-3.416 2.245-6.65 3.267-8.704 2.64h.007Zm23.088-5.006a16.202 16.202 0 0 1-3.412 4.24 16.215 16.215 0 0 1-7.17 3.677c-.023.005-.047.01-.072.017a3.661 3.661 0 0 0-.099.023c-.058.015-.12.03-.19.042a8.556 8.556 0 0 1-.744.132l-.122.02-.134.018h-.001a11.23 11.23 0 0 1-.691.074 14.466 14.466 0 0 1-8.714-2.004c2.084-.205 4.627-1.22 7.229-2.899l.148-.097h.001l.149-.097c.198-.132.4-.267.598-.402.189-.132.374-.268.559-.406l.167-.122.167-.122a34.313 34.313 0 0 0 3.575-3.11l.057-.06.052-.055.231-.23s.02-.02.027-.03l.043-.043.089-.09c.021-.024.045-.047.068-.07l.068-.07.006-.007.008-.009a.262.262 0 0 1 .042-.038l.015-.018a.158.158 0 0 1 .015-.018l.01-.01.062-.063-.06.07c.036-.035.07-.071.102-.107a3.59 3.59 0 0 1 .097-.1s.007-.01.01-.01c.069-.073.134-.146.2-.219a32.24 32.24 0 0 1 .13-.148l.07-.079.014-.02c.109-.115.214-.234.317-.353.148-.168.293-.34.437-.51l.109-.13c.076-.098.152-.194.231-.286l.095-.12.001-.001c.05-.063.1-.127.152-.189.301-.386.589-.765.863-1.154l5.198 5.183h-.003Zm9.487-13.509h14.98v13.997a.24.24 0 0 1-.241.24H49.7v2.52h4.577a2.417 2.417 0 0 0 2.414-2.414V8.635h1.6V6.314h-19.1v2.321Zm11.703 2.994v6.99c0 .798-.655 1.451-1.455 1.451h-8.81v-6.99c0-.801.652-1.45 1.456-1.45h8.81Zm-2.764 6.12a.243.243 0 0 0 .244-.24v-3.555h-4.983a.24.24 0 0 0-.241.24v3.555h4.98ZM106 6.555h-2.771v18.6H106v-18.6Zm-22.787 18.6 7.169-18.6h3.975l7.169 18.6h-3.059l-1.799-4.725H88.07l-1.798 4.725h-3.06ZM92.366 9.15l-3.244 8.516h6.488L92.366 9.15ZM63.749 20.43h2.642c-.116-.983-.605-2.447-1.015-3.47h-2.537c.41 1.201.857 2.619.91 3.47Zm15.548 0h-2.642c.116-.983.605-2.447 1.016-3.47h2.536c-.41 1.201-.857 2.619-.91 3.47Zm1.207-6.658V6.314H62.545v1.945h15.539v1.692h-15.09v1.635h15.09v1.448c0 .135-.11.244-.242.244H62.546v1.945H79.05c.8 0 1.455-.65 1.455-1.45Zm-10.452 2.516h2.619l.009.256c.052 1.718.194 6.332 7.996 6.57v2.275s-6.345.26-9.315-3.914c-2.97 4.174-9.319 3.914-9.319 3.914v-2.275c7.795-.238 7.944-4.843 8-6.565.003-.096.006-.184.01-.26Z" fill="#131313"></path>
</svg>