<svg preserveAspectRatio="xMidYMid meet" data-bbox="0 0 553.333 160" xmlns="http://www.w3.org/2000/svg" viewBox="0 0 554 160" height="160" width="554" data-type="ugc" role="presentation" aria-hidden="true" aria-label="">
    <g>
        <path fill="#0B1328" d="M453.985 128.592V60.986h15.493v67.606z"></path>
        <path fill="#0B1328" d="M461.731 48.592q-3.944 0-6.62-2.676-2.535-2.676-2.535-6.62t2.535-6.62Q457.787 30 461.731 30q4.085 0 6.62 2.676 2.535 2.675 2.535 6.62 0 3.944-2.535 6.62t-6.62 2.676"></path>
        <path fill="#0B1328" d="M517.84 130q-9.859 0-17.887-4.648-8.028-4.788-12.817-12.817-4.648-8.028-4.648-17.887t4.648-17.746q4.79-7.888 12.817-12.536 8.029-4.788 17.887-4.788 10 0 18.029 4.647 8.028 4.65 12.676 12.677 4.788 7.887 4.788 17.746 0 9.86-4.788 17.887-4.648 8.03-12.676 12.817Q527.84 130 517.84 130m0-14.929q5.775 0 10.141-2.536 4.507-2.676 6.902-7.323 2.535-4.648 2.535-10.564t-2.535-10.422q-2.536-4.508-6.902-7.043-4.366-2.676-10.141-2.676-5.633 0-10.14 2.676-4.367 2.535-6.902 7.043-2.394 4.506-2.394 10.422t2.394 10.564q2.535 4.647 6.902 7.323 4.507 2.536 10.14 2.536" clip-rule="evenodd" fill-rule="evenodd"></path>
        <path fill="#0B1328" d="M332.53 60.986v67.606h15.493V88.31q0-4.507 1.972-7.606 1.973-3.239 5.211-4.93 3.38-1.69 7.606-1.69 6.197 0 10.422 3.803 4.226 3.663 4.226 10.423v40.282h15.493V88.31q0-4.507 1.972-7.606a12.9 12.9 0 0 1 5.352-4.93q3.38-1.69 7.464-1.69 6.198 0 10.423 3.803 4.225 3.663 4.225 10.423v40.282h15.493V84.93q0-7.888-3.521-13.521t-9.436-8.733q-5.916-3.098-13.24-3.098-7.183 0-13.239 3.24-5.538 2.9-9.225 8.023-3.323-5.224-8.803-8.165-5.775-3.098-12.958-3.098t-12.958 3.24q-3.742 2.007-6.479 5.08v-6.912z"></path>
        <path fill="#0B1328" d="M288.702 130q-10.14 0-18.309-4.507-8.03-4.647-12.817-12.676-4.648-8.028-4.648-18.028 0-10.001 4.648-17.887 4.647-8.029 12.535-12.677 8.028-4.647 17.746-4.647 9.436 0 16.62 4.366 7.324 4.365 11.408 11.972 4.226 7.605 4.226 17.324 0 1.69-.282 3.52-.141 1.691-.563 3.804H268.83a21 21 0 0 0 1.844 4.929q2.535 4.79 7.183 7.465 4.648 2.535 10.705 2.535 5.21 0 9.577-1.831 4.507-1.83 7.606-5.352l9.859 10q-4.93 5.775-11.972 8.733Q296.59 130 288.702 130m-19.824-42.112h35.983q-.61-2.986-1.792-5.353-2.113-4.224-6.057-6.478-3.803-2.254-9.436-2.254-5.916 0-10.282 2.535t-6.761 7.183a19.2 19.2 0 0 0-1.655 4.367" clip-rule="evenodd" fill-rule="evenodd"></path>
        <path fill="#0B1328" d="M202 60.986v67.606h15.493V90.986q0-8.732 4.225-12.817 4.225-4.084 10.705-4.084 2.957 0 5.211.845 2.254.844 4.084 2.817l10.141-10.423q-3.521-4.085-7.606-5.915-4.084-1.831-9.154-1.831-11.55 0-17.324 8.028-.143.2-.282.402v-7.022z"></path>
        <path fill="url(#d1d0f3f0-4612-4a7d-b50a-030e64d9f51b_comp-m2n2q9yk_r_comp-m9sbx3yy)" d="M66.91 62.793C66.91 28.48 39.092.665 4.78.665A4.78 4.78 0 0 0 0 5.445v92.426C0 132.185 27.816 160 62.13 160a4.78 4.78 0 0 0 4.78-4.78z"></path>
        <path fill="#ffffff" d="M75.683 35.85c0-19.8 16.05-35.85 35.85-35.85s35.851 16.05 35.851 35.85-16.051 35.851-35.851 35.851-35.85-16.05-35.85-35.85"></path>
        <path fill="url(#e3ac04e3-dd84-4d92-9d51-994ef16d8349_comp-m2n2q9yk_r_comp-m9sbx3yy)" d="M75.683 35.85c0-19.8 16.05-35.85 35.85-35.85s35.851 16.05 35.851 35.85-16.051 35.851-35.851 35.851-35.85-16.05-35.85-35.85"></path>
        <path fill="url(#7d6ab7ab-0dc1-4231-a3f5-19b42d6f0470_comp-m2n2q9yk_r_comp-m9sbx3yy)" d="M75.683 35.85c0-19.8 16.05-35.85 35.85-35.85s35.851 16.05 35.851 35.85-16.051 35.851-35.851 35.851-35.85-16.05-35.85-35.85"></path>
        <path fill="url(#f463550c-fea1-4a76-a2ea-7e8692af928d_comp-m2n2q9yk_r_comp-m9sbx3yy)" d="M75.683 35.85c0-19.8 16.05-35.85 35.85-35.85s35.851 16.05 35.851 35.85-16.051 35.851-35.851 35.851-35.85-16.05-35.85-35.85"></path>
        <path stroke-opacity=".16" stroke="url(#9a4df7a3-5f56-4902-9b15-c07765f6a54d_comp-m2n2q9yk_r_comp-m9sbx3yy)" d="M76.183 35.85C76.183 16.327 92.01.5 111.533.5s35.351 15.827 35.351 35.35-15.827 35.351-35.351 35.351c-19.523 0-35.35-15.827-35.35-35.35Z" fill="none"></path>
        <defs fill="none">
            <radialGradient gradientTransform="rotate(119.427 73.539 42.95)scale(82.6656)" gradientUnits="userSpaceOnUse" r="1" cy="0" cx="0" id="e3ac04e3-dd84-4d92-9d51-994ef16d8349_comp-m2n2q9yk_r_comp-m9sbx3yy">
                <stop stop-opacity=".56" stop-color="#FF9ABA"></stop>
                <stop stop-opacity="0" stop-color="#ffffff" offset="1"></stop>
            </radialGradient>
            <radialGradient gradientTransform="matrix(33.23075 -59.69234 61.42303 34.19422 99.078 59.692)" gradientUnits="userSpaceOnUse" r="1" cy="0" cx="0" id="7d6ab7ab-0dc1-4231-a3f5-19b42d6f0470_comp-m2n2q9yk_r_comp-m9sbx3yy">
                <stop stop-color="#49F17E"></stop>
                <stop stop-opacity="0" stop-color="#BFFFCE" offset="1"></stop>
            </radialGradient>
            <radialGradient gradientTransform="rotate(42.325 34.63 110.087)scale(45.257)" gradientUnits="userSpaceOnUse" r="1" cy="0" cx="0" id="f463550c-fea1-4a76-a2ea-7e8692af928d_comp-m2n2q9yk_r_comp-m9sbx3yy">
                <stop stop-color="#00D9FF"></stop>
                <stop stop-opacity="0" stop-color="#00FFDD" offset="1"></stop>
            </radialGradient>
            <linearGradient gradientUnits="userSpaceOnUse" y2="160" x2="33.455" y1="7.635" x1="33.455" id="d1d0f3f0-4612-4a7d-b50a-030e64d9f51b_comp-m2n2q9yk_r_comp-m9sbx3yy">
                <stop stop-color="#084CF5"></stop>
                <stop stop-color="#4F7FFF" offset="1"></stop>
            </linearGradient>
            <linearGradient gradientUnits="userSpaceOnUse" y2="72" x2="92.309" y1="20.308" x1="118.77" id="9a4df7a3-5f56-4902-9b15-c07765f6a54d_comp-m2n2q9yk_r_comp-m9sbx3yy">
                <stop stop-opacity=".03" stop-color="#084CF5"></stop>
                <stop stop-color="#084CF5" offset="1"></stop>
            </linearGradient>
        </defs>
    </g>
</svg>